<?xml version="1.0" encoding="UTF-8"?>
<svg width="20px" height="20px" viewBox="0 0 20 20" version="1.1" xmlns="http://www.w3.org/2000/svg" xmlns:xlink="http://www.w3.org/1999/xlink">
    <!-- Generator: Sketch 55.2 (78181) - https://sketchapp.com -->
    <title>abs</title>
    <desc>Created with Sketch.</desc>
    <g id="Page-1" stroke="none" stroke-width="1" fill="none" fill-rule="evenodd" opacity="0.7">
        <g id="自动化营销引擎" transform="translate(-63.000000, -512.000000)">
            <g id="abs" transform="translate(63.000000, 512.000000)">
                <path d="M15,8.96897176 C15,8.33587153 14.5492143,8 13.7510845,8 C13.3698062,8 13.1504868,8.02527843 13,8.05003885 L13,10 L13.5778463,10 C14.5030367,10.0001036 15,9.58995077 15,8.96897176 Z" id="路径" fill="#5E77FF"></path>
                <path d="M13.5505737,11 L13,11 L13,12.9792363 C13.1586055,13 13.348985,13 13.6248014,13 C14.3545455,13 15,12.7293775 15,11.9898788 C15,11.2817428 14.3545455,11 13.5505737,11 Z" id="路径" fill="#5E77FF"></path>
                <path d="M7.63616521,7.10437847 C7.61635326,7.04283584 7.54919409,7 7.47028207,7 C7.39170584,7 7.32303559,7.04283584 7.30507052,7.10437847 C7.15564137,7.59211061 6.93938885,8.29022638 6.80490262,8.67520672 L6,11 L9,11 L8.15413029,8.67520672 C7.97699799,8.19696354 7.7981867,7.62979531 7.63616521,7.10437847 Z" id="路径" fill="#5E77FF"></path>
                <path d="M9.99996609,0 C4.48618095,0 0,4.48582666 0,10 C0,15.5141733 4.48618095,20 9.99996609,20 C15.513819,20 20,15.5141055 20,10 C20,4.48589448 15.5137512,0 9.99996609,0 Z M10.7761197,13.9956529 C10.5905695,14.2564213 10.2966068,14.4109629 9.9851176,14.4109629 C9.55188729,14.4109629 9.16955735,14.1154035 9.0446678,13.6841704 L8.59989308,12.1487887 L6.17157843,12.1487887 L5.76678936,13.6635576 C5.6489314,14.1054788 5.26166884,14.4110719 4.8200426,14.4110719 C4.52891351,14.4110719 4.25541589,14.2678729 4.08235466,14.0246635 C3.90897857,13.7812361 3.85692377,13.4671361 3.94193262,13.1780114 L5.90185898,6.51309361 C6.06180156,5.96898085 6.54551244,5.59740495 7.09261263,5.59740495 L7.77089933,5.59740495 C8.31600548,5.59740495 8.79761737,5.96636335 8.95944904,6.50785861 L10.9236783,13.0874896 C11.0158237,13.3973361 10.9607254,13.7342301 10.7761197,13.9956529 Z M16.5956088,13.2672269 C16.0347107,13.6791674 15.0945897,13.9112528 13.5580005,13.9112528 C12.9231893,13.9112528 12.4069451,13.8823632 12.0233237,13.8458989 C11.8207081,13.8265218 11.6666667,13.669655 11.6666667,13.4812563 L11.6666667,7.12784272 C11.6666667,6.94349561 11.816214,6.78742151 12.0140487,6.76408086 C12.5143246,6.70621366 13.2379654,6.66666667 13.924793,6.66666667 C14.9909393,6.66666667 15.644396,6.76161468 16.2064416,7.06786165 C16.7450605,7.3322716 17.135184,7.81766909 17.135184,8.4622234 C17.135184,9.09532758 16.7338732,9.68703513 15.8620237,9.98280082 L15.8620237,10.0038515 C16.7450605,10.2258959 17.3985173,10.8380375 17.3985173,11.7568665 C17.3985173,12.4013328 17.0774304,12.9076928 16.5956088,13.2672269 Z" id="形状" fill="#2979FF" fill-rule="nonzero"></path>
            </g>
        </g>
    </g>
</svg>