<?xml version="1.0" encoding="UTF-8"?>
<svg width="33px" height="39px" viewBox="0 0 33 39" version="1.1" xmlns="http://www.w3.org/2000/svg" xmlns:xlink="http://www.w3.org/1999/xlink">
    <!-- Generator: Sketch 55.2 (78181) - https://sketchapp.com -->
    <title>空白</title>
    <desc>Created with Sketch.</desc>
    <g id="Page-1" stroke="none" stroke-width="1" fill="none" fill-rule="evenodd">
        <g id="自动化营销引擎" transform="translate(-426.000000, -223.000000)" fill="#FFFFFF" fill-rule="nonzero">
            <g id="空白" transform="translate(417.000000, 217.000000)">
                <rect id="矩形" opacity="0" x="0" y="0" width="50" height="50"></rect>
                <path d="M28.2483956,17.8365 C28.2483956,18.416625 28.445741,18.913875 28.8500583,19.313625 C29.2543757,19.723125 29.7405193,19.923 30.3084889,19.923 L42,19.923 L42,42.908625 C42,43.48875 41.8026546,43.986 41.3983372,44.38575 C40.9988331,44.800125 40.5126896,45 39.9399067,45 L11.0600933,45 C10.4873104,45 9.99635356,44.800125 9.60166278,44.390625 C9.19734539,43.981125 9,43.48875 9,42.9135 L9,8.0865 C9,7.506375 9.19734539,7.009125 9.60166278,6.609375 C10.0059802,6.199875 10.4921237,6 11.0600933,6 L28.2532089,6 L28.2483956,17.8365 Z M30.9967911,17.14425 L30.9967911,6.862875 C31.3144691,7.06275 31.5695741,7.272375 31.7717328,7.47225 L40.5415694,16.3545 C40.7389148,16.554375 40.9458868,16.817625 41.1432322,17.139375 L30.9967911,17.14425 Z" id="形状"></path>
            </g>
        </g>
    </g>
</svg>