<?xml version="1.0" encoding="UTF-8"?>
<svg width="45px" height="44px" viewBox="0 0 45 44" version="1.1" xmlns="http://www.w3.org/2000/svg" xmlns:xlink="http://www.w3.org/1999/xlink">
    <!-- Generator: Sketch 55.2 (78181) - https://sketchapp.com -->
    <title>实时</title>
    <desc>Created with Sketch.</desc>
    <g id="Page-1" stroke="none" stroke-width="1" fill="none" fill-rule="evenodd">
        <g id="自动化营销引擎" transform="translate(-694.000000, -220.000000)" fill="#FFFFFF" fill-rule="nonzero">
            <g id="实时" transform="translate(692.000000, 217.000000)">
                <rect id="矩形" opacity="0" x="0" y="0" width="50" height="50"></rect>
                <path d="M24.5555556,3.66666665 C12.5555556,3.66666665 2.88888887,13.3333333 2.88888887,25.3333333 C2.88888887,37.3333333 12.6666667,47 24.5555556,47 C36.5555556,47 46.2222222,37.3333333 46.2222222,25.3333333 C46.2222222,13.3333333 36.4444444,3.66666665 24.5555556,3.66666665 Z M38.6666667,31.8888889 C38.3333333,32.5555555 37.7777778,32.8888889 37.1111111,32.8888889 C36.8888889,32.8888889 36.6666667,32.8888889 36.4444444,32.7777778 L23.6666667,27 C23.1111111,26.7777778 22.6666667,26.1111111 22.6666667,25.4444444 L22.6666667,13.4444444 C22.6666667,12.5555556 23.4444444,11.7777778 24.3333333,11.7777778 C25.2222223,11.7777778 26,12.5555556 26,13.4444444 L26,24.4444444 L37.7777778,29.7777778 C38.6666667,30.1111111 39,31 38.6666667,31.8888889 L38.6666667,31.8888889 Z" id="形状"></path>
            </g>
        </g>
    </g>
</svg>