<?xml version="1.0" encoding="UTF-8"?>
<svg width="50px" height="47px" viewBox="0 0 50 47" version="1.1" xmlns="http://www.w3.org/2000/svg" xmlns:xlink="http://www.w3.org/1999/xlink">
    <!-- Generator: Sketch 55.2 (78181) - https://sketchapp.com -->
    <title>周期</title>
    <desc>Created with Sketch.</desc>
    <g id="Page-1" stroke="none" stroke-width="1" fill="none" fill-rule="evenodd">
        <g id="自动化营销引擎" transform="translate(-967.000000, -218.000000)" fill="#FFFFFF" fill-rule="nonzero">
            <g id="周期" transform="translate(967.000000, 217.000000)">
                <rect id="矩形" opacity="0" x="0" y="0" width="50" height="50"></rect>
                <path d="M12.2509925,29.7507534 C12.4555921,29.3903156 12.7938908,29.1270471 13.1910923,29.0191556 C13.5882937,28.9112641 14.0116789,28.9676369 14.3676391,29.1758103 L15.4092959,29.7852669 C15.7867923,30.0066578 16.213455,29.5840789 16.0017903,29.1985387 L11.9201623,21.7478485 C11.3043757,20.6232507 10.1247722,19.9334189 8.85269136,19.9539925 L0.424437813,20.0853118 C-0.0122247025,20.0920461 -0.162223282,20.6754071 0.215273143,20.8967981 L1.25109664,21.5028874 C1.98946913,21.9349659 2.24192058,22.8894865 1.81525799,23.6359853 L1.75859183,23.7344748 C1.14352838,24.8109652 1.14352838,26.1371057 1.75859183,27.213596 L7.31687255,36.937963 C7.69770229,37.6038195 8.67685967,37.4741837 8.88769102,36.7350914 C9.35238077,35.1296456 10.0227729,33.5924274 10.8818388,32.162484 L12.2509925,29.7507534 L12.2509925,29.7507534 Z M26.5975233,32.1633258 L14.0068092,32.1633258 C13.6609791,32.5976898 10.5410087,36.6786915 10.864339,41.9373584 C10.9301717,43.0039073 11.6543315,43.9601816 12.6784884,44.2303965 C12.9551525,44.3036323 13.2434831,44.3415128 13.537647,44.3415128 L26.5983566,44.3415128 C27.5496581,44.3415128 28.3208403,43.5624966 28.3208403,42.6015313 L28.3208403,33.9033073 C28.3203802,32.9422059 27.5489597,32.1633258 26.5975233,32.1633258 L26.5975233,32.1633258 Z M7.99186616,16.3098802 L15.3901295,20.6248997 C15.7856037,20.85575 16.2556812,20.9183914 16.6968892,20.7990355 C17.1380973,20.6796796 17.5142708,20.3881098 17.7426072,19.9885059 L24.0942137,8.87518413 C23.746717,8.08390079 21.6850698,3.76383057 17.2401119,1.63409991 C16.4692859,1.26455375 15.5509613,1.26034481 14.8243015,1.71154464 C14.3385279,2.01299969 13.9347152,2.43190801 13.6493126,2.93045771 L7.36103878,13.9335049 C6.88577345,14.7657112 7.16817344,15.8295337 7.99186616,16.3098802 Z M25.6200326,6.2058656 L27.2466838,9.01997211 C27.453955,9.37890712 27.5112221,9.80643589 27.4058334,10.2081066 C27.3004446,10.6097773 27.0410738,10.9525315 26.6850225,11.1606461 L25.7608646,11.7002339 C25.3825348,11.9207831 25.5325334,12.5041441 25.9691959,12.5117203 L34.3974495,12.6497739 C35.669376,12.6706213 36.849111,11.9815473 37.4657537,10.8576014 L41.5523817,3.41027845 C41.7640464,3.02473829 41.3382171,2.60215931 40.9598873,2.82270846 L39.796565,3.50203361 C39.4413088,3.70941539 39.0190355,3.7657015 38.6226871,3.65850339 C38.2263387,3.55130528 37.8884002,3.28940899 37.6832517,2.93045771 C37.0680156,1.85366509 35.9307166,1.19034734 34.6999466,1.19047619 L23.5717186,1.19047619 C22.8108925,1.19047619 22.4317294,2.11223708 22.9592244,2.66529362 C23.9776718,3.73847369 24.8704806,4.9264789 25.6200326,6.2058656 Z M49.9906351,25.0998594 C49.9458918,24.5996667 49.7937505,24.1153377 49.544806,23.6806002 L43.2090327,12.5958993 C42.7332312,11.7641446 41.6801742,11.479271 40.856555,11.9595055 L33.4116255,16.3014623 C32.5879327,16.7818088 32.3055327,17.8456313 32.7807981,18.6778376 L38.9099067,29.4005685 C39.4007354,29.4847475 44.3873549,30.24741 48.7631467,27.4720258 C49.5648058,26.9635842 50.0764677,26.0527666 49.9906351,25.0998594 L49.9906351,25.0998594 Z M45.2781797,31.6952901 C43.4231973,32.1237616 41.7282134,32.1936302 40.4832251,32.1549078 L40.4873918,32.162484 L40.4707253,32.162484 L40.4715586,32.1633258 L37.6032524,32.1633258 C36.7490601,32.1633258 36.0566004,31.4638317 36.0566004,30.6009621 L36.0566004,29.4477087 C36.0566004,29.0066104 35.4816059,28.8458283 35.256608,29.2237924 L30.9199824,36.5254855 C30.2658742,37.6274024 30.2658742,39.0037048 30.9199824,40.1056217 L35.256608,47.4073148 C35.4816059,47.7852789 36.0566004,47.6244968 36.0566004,47.1833985 L36.0566004,45.9030347 C36.0566004,45.0401992 36.7490939,44.340671 37.6032524,44.340671 L37.7349179,44.340671 C38.9656418,44.3406262 40.102861,43.677355 40.7182229,42.6006895 L46.2215042,32.9714449 C46.5998339,32.3131645 46.0140061,31.5252484 45.2781797,31.6952901 L45.2781797,31.6952901 Z" id="形状"></path>
            </g>
        </g>
    </g>
</svg>