<?xml version="1.0" encoding="UTF-8"?>
<svg width="44px" height="44px" viewBox="0 0 44 44" version="1.1" xmlns="http://www.w3.org/2000/svg" xmlns:xlink="http://www.w3.org/1999/xlink">
    <!-- Generator: Sketch 55.2 (78181) - https://sketchapp.com -->
    <title>单次</title>
    <desc>Created with Sketch.</desc>
    <g id="Page-1" stroke="none" stroke-width="1" fill="none" fill-rule="evenodd">
        <g id="自动化营销引擎" transform="translate(-1245.000000, -220.000000)" fill="#FFFFFF" fill-rule="nonzero">
            <g id="单次" transform="translate(1242.000000, 217.000000)">
                <rect id="矩形" opacity="0" x="0" y="0" width="50" height="50"></rect>
                <path d="M25.0021985,47.0153736 C12.8757702,47.0153736 3.04638452,37.1596058 3.04638452,24.9978015 C3.04638452,12.8403443 12.8757702,2.98457646 25.0021985,2.98457646 C37.1243297,2.98457646 46.9536154,12.8403442 46.9536154,24.9978015 C46.9536154,37.1596058 37.1243297,47.0153736 25.0021985,47.0153736 L25.0021985,47.0153736 Z M27.9663888,14.1569016 L24.58693,14.1569016 C24.1100534,15.4909971 23.2350966,16.6528094 21.9582623,17.6556794 C20.6860748,18.6540525 19.5020775,19.3299443 18.4154143,19.6877517 L18.4154143,23.4736849 C20.4831124,22.7889491 22.2765964,21.737562 23.7961662,20.3106794 L23.7961662,36.0684956 L27.9663888,36.0684956 L27.9663888,14.1569016 L27.9663888,14.1569016 Z" id="形状"></path>
            </g>
        </g>
    </g>
</svg>