<?xml version="1.0" encoding="UTF-8"?>
<svg width="44px" height="42px" viewBox="0 0 44 42" version="1.1" xmlns="http://www.w3.org/2000/svg" xmlns:xlink="http://www.w3.org/1999/xlink">
    <!-- Generator: Sketch 55.2 (78181) - https://sketchapp.com -->
    <title>节日</title>
    <desc>Created with Sketch.</desc>
    <g id="Page-1" stroke="none" stroke-width="1" fill="none" fill-rule="evenodd">
        <g id="自动化营销引擎" transform="translate(-420.000000, -479.000000)" fill="#FFFFFF" fill-rule="nonzero">
            <g id="节日" transform="translate(416.000000, 473.000000)">
                <rect id="矩形" opacity="0" x="0" y="0" width="50" height="50"></rect>
                <path d="M34.9420849,8.31600832 C34.9420849,7.44282744 34.2625483,6.75675676 33.3976834,6.75675676 C32.5328185,6.75675676 31.8532819,7.44282744 31.8532819,8.31600832 L31.8532819,9.87525988 L34.9420849,9.87525988 L34.9420849,8.31600832 Z M19.4980695,8.31600832 C19.4980695,7.44282744 18.8185328,6.75675676 17.953668,6.75675676 C17.0888031,6.75675676 16.4092664,7.44282744 16.4092664,8.31600832 L16.4092664,9.87525988 L19.4980695,9.87525988 L19.4980695,8.31600832 Z M41.1196911,9.87525988 L34.9420849,9.87525988 L34.9420849,14.5530146 C34.9420849,15.4261954 34.2625483,16.1122661 33.3976834,16.1122661 C32.5328185,16.1122661 31.8532819,15.4261954 31.8532819,14.5530146 L31.8532819,9.87525988 L19.4980695,9.87525988 L19.4980695,14.5530146 C19.4980695,15.4261954 18.8185328,16.1122661 17.953668,16.1122661 C17.0888031,16.1122661 16.4092664,15.4261954 16.4092664,14.5530146 L16.4092664,9.87525988 L10.2316602,9.87525988 C6.83397683,9.87525988 4.05405405,12.6819127 4.05405405,16.1122661 L4.05405405,41.0602911 C4.05405405,44.4906445 6.83397683,47.2972973 10.2316602,47.2972973 L41.1196911,47.2972973 C44.5173745,47.2972973 47.2972973,44.4906445 47.2972973,41.0602911 L47.2972973,16.1122661 C47.2972973,12.6819127 44.5173745,9.87525988 41.1196911,9.87525988 Z M17.953668,37.9417879 L14.8648649,37.9417879 C14,37.9417879 13.3204633,37.2557173 13.3204633,36.3825364 C13.3204633,35.5093555 14,34.8232848 14.8648649,34.8232848 L17.953668,34.8232848 C18.8185328,34.8232848 19.4980695,35.5093555 19.4980695,36.3825364 C19.4980695,37.2557173 18.8185328,37.9417879 17.953668,37.9417879 Z M17.953668,31.7047817 L14.8648649,31.7047817 C14,31.7047817 13.3204633,31.018711 13.3204633,30.1455301 C13.3204633,29.2723493 14,28.5862786 14.8648649,28.5862786 L17.953668,28.5862786 C18.8185328,28.5862786 19.4980695,29.2723493 19.4980695,30.1455301 C19.4980695,31.018711 18.8185328,31.7047817 17.953668,31.7047817 Z M27.2200772,37.9417879 L24.1312741,37.9417879 C23.2664093,37.9417879 22.5868726,37.2557173 22.5868726,36.3825364 C22.5868726,35.5093555 23.2664093,34.8232848 24.1312741,34.8232848 L27.2200772,34.8232848 C28.0849421,34.8232848 28.7644788,35.5093555 28.7644788,36.3825364 C28.7644788,37.2557173 28.0849421,37.9417879 27.2200772,37.9417879 Z M27.2200772,31.7047817 L24.1312741,31.7047817 C23.2664093,31.7047817 22.5868726,31.018711 22.5868726,30.1455301 C22.5868726,29.2723493 23.2664093,28.5862786 24.1312741,28.5862786 L27.2200772,28.5862786 C28.0849421,28.5862786 28.7644788,29.2723493 28.7644788,30.1455301 C28.7644788,31.018711 28.0849421,31.7047817 27.2200772,31.7047817 Z M36.4864865,37.9417879 L33.3976834,37.9417879 C32.5328185,37.9417879 31.8532819,37.2557173 31.8532819,36.3825364 C31.8532819,35.5093555 32.5328185,34.8232848 33.3976834,34.8232848 L36.4864865,34.8232848 C37.3513514,34.8232848 38.030888,35.5093555 38.030888,36.3825364 C38.030888,37.2557173 37.3513514,37.9417879 36.4864865,37.9417879 Z M36.4864865,31.7047817 L33.3976834,31.7047817 C32.5328185,31.7047817 31.8532819,31.018711 31.8532819,30.1455301 C31.8532819,29.2723493 32.5328185,28.5862786 33.3976834,28.5862786 L36.4864865,28.5862786 C37.3513514,28.5862786 38.030888,29.2723493 38.030888,30.1455301 C38.030888,31.018711 37.3513514,31.7047817 36.4864865,31.7047817 Z M42.6640927,22.3492723 L8.68725869,22.3492723 C7.82239382,22.3492723 7.14285714,21.6632017 7.14285714,20.7900208 C7.14285714,19.9168399 7.82239382,19.2307692 8.68725869,19.2307692 L42.6640927,19.2307692 C43.5289575,19.2307692 44.2084942,19.9168399 44.2084942,20.7900208 C44.2084942,21.6632017 43.5289575,22.3492723 42.6640927,22.3492723 Z" id="形状"></path>
            </g>
        </g>
    </g>
</svg>