<?xml version="1.0" encoding="UTF-8"?>
<svg width="21px" height="21px" viewBox="0 0 21 21" version="1.1" xmlns="http://www.w3.org/2000/svg" xmlns:xlink="http://www.w3.org/1999/xlink">
    <!-- Generator: Sketch 55.2 (78181) - https://sketchapp.com -->
    <title>customer</title>
    <desc>Created with Sketch.</desc>
    <g id="Page-1" stroke="none" stroke-width="1" fill="none" fill-rule="evenodd" opacity="0.7">
        <g id="自动化营销引擎" transform="translate(-61.000000, -307.000000)" fill="#889AFF">
            <g id="customer" transform="translate(61.000000, 307.000000)">
                <path d="M10.5206612,0 C9.15326446,0 8,1.14381148 8,2.5 C8,3.85618852 9.15326446,5 10.5206612,5 C11.8880579,5 13,3.85618852 13,2.5 C13,1.14381148 11.8880579,0 10.5206612,0 Z" id="路径"></path>
                <path d="M13.9653923,5 C13.2367735,5.6093 12.1931934,6 11.0220994,6 C9.85100552,6 8.76322652,5.6093 8.03460773,5 C7.39849724,5.53196667 7,6.22886667 7,7 L7,7.5 C7,7.77636667 7.29653039,8 7.66298343,8 L14.3370166,8 C14.7034696,8 15,7.77636667 15,7.5 L15,7 C15,6.22886667 14.6015028,5.53196667 13.9653923,5 Z" id="路径"></path>
                <path d="M5.87196778,18.9032085 L2.7747129,12.6752929 C2.47564776,12.0738971 1.74777807,11.8286491 1.14741929,12.1269698 L0.337905343,12.5291601 C0.0364901452,12.6790722 -0.0861585713,13.0464768 0.0642856588,13.3482516 L3.71092738,20.6630199 C3.86088539,20.9646728 4.22567112,21.0847163 4.52465522,20.936836 L5.32375598,20.539766 C5.92646482,20.2403482 6.17212691,19.5068801 5.87196778,18.9032085 Z" id="路径"></path>
                <path d="M20.4788029,10.4685996 C19.9553078,10.092767 19.2275812,10.1679335 18.7935411,10.6314604 L15.3038577,14.8407857 C15.0612822,15.0913408 14.6016653,15.2416738 14.3590898,15.2416738 L11.3843049,15.2416738 C11.0267826,15.2416738 10.7459482,14.966105 10.7459482,14.6152861 C10.7459482,14.2644673 11.0267826,13.9888984 11.3843049,13.9888984 C12.2392773,13.9888984 13.1858327,13.9888984 13.9377318,13.9888984 C14.6399242,13.9888984 15.2144452,13.4251495 15.2144452,12.736123 C15.2144452,12.0470966 14.6399242,11.4833477 13.9377318,11.4833477 C10.9397533,11.4833477 13.7994212,11.4833477 10.5927425,11.4833477 C10.2745856,11.4833477 10.1159326,11.2853674 9.86501588,11.06989 C8.8773078,10.1977496 7.39887363,9.77756869 5.90213989,10.1179895 C5.07108455,10.3069916 4.51064991,10.6364297 3.94225708,11.0781583 L3.92331917,11.0630833 L3,11.8604331 L6.62858985,19 L7.70307188,19 L13.9377318,19 C15.1378424,19 16.2869271,18.4362511 17.0018866,17.4966695 L20.7468702,12.2350129 C21.1681856,11.68375 21.0532814,10.8820572 20.4788029,10.4685996 Z" id="路径"></path>
            </g>
        </g>
    </g>
</svg>