<?xml version="1.0" standalone="no"?><!DOCTYPE svg PUBLIC "-//W3C//DTD SVG 1.1//EN" "http://www.w3.org/Graphics/SVG/1.1/DTD/svg11.dtd"><svg t="1562564837723" class="icon" viewBox="0 0 1433 1024" version="1.1" xmlns="http://www.w3.org/2000/svg" p-id="2770" xmlns:xlink="http://www.w3.org/1999/xlink" width="22.390625" height="16"><defs><style type="text/css"></style></defs><path d="M1403.6992 654.199467c16.520533 0 29.9008 12.765867 29.9008 28.4672v227.5328c0 62.805333-53.589333 113.800533-119.466667 113.800533H119.466667C53.589333 1024 0 973.0048 0 910.199467V682.666667c0-15.701333 13.380267-28.4672 29.9008-28.4672 82.3296 0 149.2992-63.761067 149.2992-142.199467S112.2304 369.800533 29.9008 369.800533A29.149867 29.149867 0 0 1 0 341.333333V113.800533C0 50.9952 53.589333 0 119.466667 0h1194.666666C1380.010667 0 1433.6 50.9952 1433.6 113.800533V341.333333c0 15.701333-13.380267 28.4672-29.9008 28.4672-82.3296 0-149.2992 63.761067-149.2992 142.199467s66.9696 142.199467 149.2992 142.199467z m-985.565867-512a29.149867 29.149867 0 0 0-29.9008-28.398934 29.149867 29.149867 0 0 0-29.832533 28.398934v56.9344c0 15.701333 13.380267 28.398933 29.832533 28.398933a29.149867 29.149867 0 0 0 29.9008-28.398933v-56.9344z m0 227.601066A29.149867 29.149867 0 0 0 388.232533 341.333333a29.149867 29.149867 0 0 0-29.832533 28.4672v56.866134c0 15.701333 13.380267 28.4672 29.832533 28.4672a29.149867 29.149867 0 0 0 29.9008-28.4672v-56.866134z m0 227.5328a29.149867 29.149867 0 0 0-29.9008-28.4672 29.149867 29.149867 0 0 0-29.832533 28.4672v56.866134c0 15.701333 13.380267 28.4672 29.832533 28.4672a29.149867 29.149867 0 0 0 29.9008-28.4672V597.333333z m0 227.5328a29.149867 29.149867 0 0 0-29.9008-28.398933 29.149867 29.149867 0 0 0-29.832533 28.398933v64.034134c0 15.701333 13.380267 28.398933 29.832533 28.398933a29.149867 29.149867 0 0 0 29.9008-28.398933v-64.034134z m119.466667-170.666666c0 78.4384 53.589333 142.267733 119.466667 142.267733s119.466667-63.829333 119.466666-142.267733c0-78.370133-53.589333-142.199467-119.466666-142.199467s-119.466667 63.829333-119.466667 142.199467z m89.565867-426.666667a30.9248 30.9248 0 0 0-16.520534 4.778667 27.579733 27.579733 0 0 0-8.260266 39.458133l358.4 512a30.72 30.72 0 0 0 41.3696 7.918933 27.579733 27.579733 0 0 0 8.328533-39.458133l-358.4-512a30.242133 30.242133 0 0 0-24.917333-12.6976z m328.567466 0c-65.877333 0-119.466667 63.829333-119.466666 142.267733 0 78.370133 53.589333 142.199467 119.466666 142.199467s119.466667-63.829333 119.466667-142.199467c0-78.4384-53.589333-142.267733-119.466667-142.267733z" fill="#F7B500" p-id="2771"></path></svg>