<?xml version="1.0" encoding="UTF-8"?>
<svg width="19px" height="19px" viewBox="0 0 19 19" version="1.1" xmlns="http://www.w3.org/2000/svg" xmlns:xlink="http://www.w3.org/1999/xlink">
    <!-- Generator: Sketch 55.2 (78181) - https://sketchapp.com -->
    <title>percentage</title>
    <desc>Created with Sketch.</desc>
    <g id="Page-1" stroke="none" stroke-width="1" fill="none" fill-rule="evenodd" opacity="0.7">
        <g id="自动化营销引擎" transform="translate(-63.000000, -433.000000)" fill="#FF5722" fill-rule="nonzero">
            <g id="percentage" transform="translate(63.000000, 433.000000)">
                <path d="M18.7558958,10.5492255 L18.4618687,10.1560093 C18.1440014,9.72775396 18.1360548,9.14766267 18.4499486,8.7116209 L18.7360291,8.31451142 C19.1730965,7.70716752 18.9704562,6.86233658 18.2989617,6.50805263 L17.8618943,6.27835206 C17.3850935,6.02918533 17.122853,5.50749249 17.2142399,4.98190642 L17.29768,4.50303911 C17.4248269,3.77111184 16.8645859,3.0936898 16.105678,3.06254396 L15.6090104,3.04307781 C15.0686362,3.01971842 14.599782,2.66154125 14.4487951,2.1515281 L14.3097282,1.68434049 C14.0991412,0.967986139 13.2965265,0.598129275 12.5972186,0.894014766 L12.1402845,1.08478304 C11.643617,1.29501747 11.0635093,1.17043411 10.7019354,0.773324631 L10.3721482,0.411254228 C9.86753396,-0.141584453 8.98147911,-0.137691222 8.48083826,0.426827148 L8.15502437,0.792790782 C7.79742376,1.19379349 7.22128944,1.32616331 6.72064858,1.12371534 L6.25974113,0.936840297 C5.55645993,0.652634497 4.7617919,1.03806428 4.55915156,1.75441863 L4.42803133,2.22549948 C4.28499109,2.73940585 3.82408363,3.10536949 3.28370938,3.1326221 L2.78704186,3.15987471 C2.0281339,3.20270024 1.47981296,3.88790875 1.61887986,4.61983601 L1.71026669,5.09870332 C1.80960019,5.62039616 1.55530642,6.14598223 1.08247895,6.40293542 L0.649384873,6.64042246 C-0.0141629274,7.00249286 -0.204883253,7.85121703 0.244104181,8.45077448 L0.53813135,8.84399072 C0.85599856,9.27224604 0.86394524,9.85233733 0.55005137,10.2883791 L0.263970881,10.6854886 C-0.173096532,11.2928325 0.029543814,12.1376634 0.701038295,12.4919474 L1.13810571,12.7216479 C1.61490652,12.9708147 1.87714697,13.4925075 1.78576015,14.0180936 L1.70232001,14.4969609 C1.57517312,15.2288882 2.13541408,15.9063102 2.89432204,15.937456 L3.39098956,15.9569222 C3.93136382,15.9802816 4.40021795,16.3384587 4.55120488,16.8484719 L4.69027178,17.3156595 C4.90085881,18.0320139 5.70347351,18.4018707 6.40278137,18.1059852 L6.85971549,17.915217 C7.356383,17.7049825 7.93649066,17.8295659 8.29806461,18.2266754 L8.62785184,18.5887458 C9.13643938,19.1415845 10.0224942,19.1376912 10.5191617,18.5731729 L10.8449756,18.2072092 C11.2025762,17.8062065 11.7787106,17.6738367 12.2793514,17.8762847 L12.7402589,18.0631597 C13.4435401,18.3473655 14.2382081,17.9619357 14.4408484,17.2455814 L14.5719687,16.7745005 C14.7150089,16.2605941 15.1759164,15.8946305 15.7162906,15.8673779 L16.2129581,15.8401253 C16.9718661,15.7972998 17.520187,15.1120913 17.3811201,14.380164 L17.2897333,13.9012967 C17.1903998,13.3796038 17.4446936,12.8540178 17.9175211,12.5970646 L18.3506151,12.3595775 C19.0141629,12.0014004 19.2048833,11.1526762 18.7558958,10.5492255 Z M4.96443225,7.88625611 C4.96443225,6.82729751 5.83856708,5.97078687 6.91931559,5.97078687 C8.0000641,5.97078687 8.87419893,6.82729751 8.87419893,7.88625611 C8.87419893,8.9452147 8.0000641,9.80172534 6.91931559,9.80172534 C5.83856708,9.80172534 4.96443225,8.94132147 4.96443225,7.88625611 Z M7.2967829,12.8267652 C7.12990262,13.0253199 6.82792877,13.0525725 6.62528842,12.8890568 L6.62528842,12.8890568 C6.42264807,12.7255412 6.39483469,12.4296557 6.56171498,12.2311009 L11.6912971,6.17712807 C11.8581774,5.97857333 12.1601512,5.95132072 12.3627916,6.11483639 C12.5654319,6.27835206 12.5932453,6.57423755 12.426365,6.77279228 L7.2967829,12.8267652 Z M12.0727377,13.0253199 C10.9919892,13.0253199 10.1178544,12.1688093 10.1178544,11.1098507 C10.1178544,10.0508921 10.9919892,9.19438143 12.0727377,9.19438143 C13.1534862,9.19438143 14.0276211,10.0508921 14.0276211,11.1098507 C14.0276211,12.1688093 13.1534862,13.0253199 12.0727377,13.0253199 Z" id="形状"></path>
            </g>
        </g>
    </g>
</svg>