<?xml version="1.0" encoding="UTF-8"?>
<svg width="25px" height="25px" viewBox="0 0 25 25" version="1.1" xmlns="http://www.w3.org/2000/svg" xmlns:xlink="http://www.w3.org/1999/xlink">
    <!-- Generator: Sketch 55.2 (78181) - https://sketchapp.com -->
    <title>precision</title>
    <desc>Created with Sketch.</desc>
    <g id="Page-1" stroke="none" stroke-width="1" fill="none" fill-rule="evenodd" opacity="0.7">
        <g id="自动化营销引擎" transform="translate(-62.000000, -633.000000)" fill="#6200EA" fill-rule="nonzero">
            <g id="precision" transform="translate(62.000000, 633.000000)">
                <path d="M24.21875,11.71875 L21.8359375,11.71875 C21.4578125,7.171875 17.828125,3.5421875 13.28125,3.1640625 L13.28125,0.78125 C13.28125,0.35 12.93125,0 12.5,0 C12.06875,0 11.71875,0.35 11.71875,0.78125 L11.71875,3.1640625 C7.171875,3.5421875 3.5421875,7.171875 3.1640625,11.71875 L0.78125,11.71875 C0.35,11.71875 0,12.06875 0,12.5 C0,12.93125 0.35,13.28125 0.78125,13.28125 L3.1625,13.28125 C3.540625,17.8265625 7.171875,21.4578125 11.71875,21.8359375 L11.71875,24.21875 C11.71875,24.65 12.06875,25 12.5,25 C12.93125,25 13.28125,24.65 13.28125,24.21875 L13.28125,21.8359375 C17.828125,21.4578125 21.459375,17.828125 21.8375,13.28125 L24.21875,13.28125 C24.65,13.28125 25,12.93125 25,12.5 C25,12.06875 24.65,11.71875 24.21875,11.71875 Z M12.5,15.625 C10.7734375,15.625 9.375,14.2265625 9.375,12.5 C9.375,10.7734375 10.7734375,9.375 12.5,9.375 C14.2265625,9.375 15.625,10.7734375 15.625,12.5 C15.625,14.225 14.2265625,15.625 12.5,15.625 Z" id="形状"></path>
            </g>
        </g>
    </g>
</svg>