<?xml version="1.0" encoding="UTF-8"?>
<svg width="17px" height="17px" viewBox="0 0 17 17" version="1.1" xmlns="http://www.w3.org/2000/svg" xmlns:xlink="http://www.w3.org/1999/xlink">
    <!-- Generator: Sketch 55.2 (78181) - https://sketchapp.com -->
    <title>repeat</title>
    <desc>Created with Sketch.</desc>
    <g id="Page-1" stroke="none" stroke-width="1" fill="none" fill-rule="evenodd" opacity="0.7">
        <g id="自动化营销引擎" transform="translate(-64.000000, -474.000000)" fill="#00C853">
            <g id="repeat" transform="translate(64.000000, 474.000000)">
                <path d="M16.8446118,3.53999633 L13.6571616,0.164762249 C13.5052265,0.00387609111 13.2767926,-0.0445022641 13.0781082,0.0432538221 C12.8794238,0.131009908 12.7498008,0.334649031 12.7498008,0.561914793 L12.7498008,2.24953183 L5.84365869,2.24953183 C2.61583413,2.24953183 0,5.01947394 0,8.43746099 C0,8.74798252 0.237996281,9 0.531241699,9 L2.6562085,9 C2.94945391,9 3.1874502,8.74798252 3.1874502,8.43746099 C3.1874502,6.88372823 4.37636912,5.62476592 5.84365869,5.62476592 L12.7498008,5.62476592 L12.7498008,7.31238296 C12.7498008,7.53964872 12.8794238,7.745538 13.0781082,7.83216901 C13.2767926,7.91992509 13.5052265,7.87154674 13.6571616,7.71066058 L16.8446118,4.3354265 C17.0517961,4.11603628 17.0517961,3.75938655 16.8446118,3.53999633 Z" id="路径"></path>
                <path d="M16.4687583,8 L14.3437915,8 C14.0505461,8 13.8125498,8.25198598 13.8125498,8.5624687 C13.8125498,10.1160073 12.6236309,11.3748122 11.1563413,11.3748122 L4.25019922,11.3748122 L4.25019922,9.6874061 C4.25019922,9.46016875 4.12057624,9.2543052 3.92189185,9.16768502 C3.72320745,9.08106484 3.495836,9.12943715 3.34283839,9.2903032 L0.155388197,12.6651154 C-0.0517960657,12.8844782 -0.0517960657,13.2410833 0.155388197,13.4604461 L3.34283839,16.8352583 C3.49477352,16.9961244 3.72320745,17.0444967 3.92189185,16.9567516 C4.12057624,16.8690065 4.25019922,16.6642679 4.25019922,16.4370305 L4.25019922,14.7496244 L11.1563413,14.7496244 C14.3841659,14.7496244 17,11.9800285 17,8.5624687 C17,8.25198598 16.7620037,8 16.4687583,8 Z" id="路径"></path>
            </g>
        </g>
    </g>
</svg>