<?xml version="1.0" standalone="no"?><!DOCTYPE svg PUBLIC "-//W3C//DTD SVG 1.1//EN" "http://www.w3.org/Graphics/SVG/1.1/DTD/svg11.dtd"><svg t="1562564888577" class="icon" viewBox="0 0 1092 1024" version="1.1" xmlns="http://www.w3.org/2000/svg" p-id="2884" xmlns:xlink="http://www.w3.org/1999/xlink" width="17.0625" height="16"><defs><style type="text/css"></style></defs><path d="M546.474667 976.213333a67.447467 67.447467 0 0 1-43.690667-15.428266c-10.4448-8.669867-265.557333-206.916267-367.616-368.162134C101.307733 539.511467 54.613333 467.217067 54.613333 364.680533 54.613333 193.604267 181.8624 54.613333 337.442133 54.613333c79.2576 0 154.897067 36.4544 209.032534 100.078934C599.927467 90.453333 674.952533 54.613333 754.824533 54.613333 911.018667 54.613333 1037.653333 193.604267 1037.653333 364.680533c0 100.693333-43.690667 169.847467-79.325866 226.0992l-1.2288 1.8432c-102.058667 161.245867-357.1712 360.106667-367.616 368.162134a68.061867 68.061867 0 0 1-43.008 15.428266z" fill="#E02020" fill-opacity=".752" p-id="2885"></path></svg>