<?xml version="1.0" standalone="no"?><!DOCTYPE svg PUBLIC "-//W3C//DTD SVG 1.1//EN" "http://www.w3.org/Graphics/SVG/1.1/DTD/svg11.dtd"><svg t="1562564420707" class="icon" viewBox="0 0 1024 1024" version="1.1" xmlns="http://www.w3.org/2000/svg" p-id="2507" width="16" height="16" xmlns:xlink="http://www.w3.org/1999/xlink"><defs><style type="text/css"></style></defs><path d="M225.520941 924.732235H153.539765v-333.101176a342.317176 342.317176 0 1 1 684.694588 0v333.101176H225.520941z m295.152941-537.479529l-168.839529 278.106353h135.047529l-33.852235 208.594823 168.899765-278.106353H486.881882l33.792-208.594823z m259.011765-305.573647c15.841882 9.276235 21.263059 29.515294 12.107294 45.477647l-60.717176 105.532235-57.344-33.189647 60.656941-105.532235a33.008941 33.008941 0 0 1 45.056-12.288h0.240941zM495.736471 3.614118c19.877647 0 35.900235 14.938353 35.900235 33.490823v119.627294H459.896471V36.984471c0-18.492235 16.082824-33.430588 35.900235-33.430589zM212.148706 81.679059a33.129412 33.129412 0 0 1 45.236706 12.167529L318.102588 199.378824l-57.344 33.249882L199.981176 127.036235a33.249882 33.249882 0 0 1 12.16753-45.357176zM4.457412 290.334118a33.008941 33.008941 0 0 1 45.236706-12.107294L154.864941 339.124706l-33.129412 57.584941L16.624941 335.631059a33.249882 33.249882 0 0 1-12.107294-45.357177z m982.859294 0a33.370353 33.370353 0 0 1-12.107294 45.477647l-105.170824 60.897882-33.069176-57.584941 105.110588-61.018353a33.129412 33.129412 0 0 1 45.176471 12.047059l0.060235 0.180706zM36.261647 924.732235h919.371294a36.080941 36.080941 0 0 1 0 72.041412H36.261647a36.020706 36.020706 0 0 1 0-72.041412z" fill="#0091FF" p-id="2508"></path></svg>