<?xml version="1.0" standalone="no"?><!DOCTYPE svg PUBLIC "-//W3C//DTD SVG 1.1//EN" "http://www.w3.org/Graphics/SVG/1.1/DTD/svg11.dtd"><svg t="1562564702138" class="icon" viewBox="0 0 1024 1024" version="1.1" xmlns="http://www.w3.org/2000/svg" p-id="2655" xmlns:xlink="http://www.w3.org/1999/xlink" width="16" height="16"><defs><style type="text/css"></style></defs><path d="M957.212444 198.200889h-74.524444c9.841778-15.530667 16.327111-32.995556 18.204444-51.370667A131.128889 131.128889 0 0 0 822.670222 11.605333a131.072 131.072 0 0 0-142.677333 22.926223l-94.151111 85.162666a100.010667 100.010667 0 0 0-147.911111 0.113778L343.722667 34.531556A131.128889 131.128889 0 0 0 201.045333 11.662222 131.128889 131.128889 0 0 0 122.88 146.773333c1.877333 18.432 8.362667 35.84 18.204444 51.370667H66.730667C29.923556 198.200889 0 228.124444 0 264.874667v100.010666C0 383.317333 14.961778 398.222222 33.393778 398.222222h957.212444A33.336889 33.336889 0 0 0 1024 364.885333V264.874667c0-36.807111-29.923556-66.673778-66.787556-66.673778zM411.875556 187.164444v11.093334H254.748444c-41.528889 0-74.183111-38.627556-63.829333-81.749334a65.422222 65.422222 0 0 1 36.067556-43.406222 64.341333 64.341333 0 0 1 71.907555 10.865778L411.875556 186.140444v0.967112z m422.741333-49.152c-2.446222 34.645333-33.792 60.302222-68.608 60.302223h-153.770667v-11.150223-1.137777l111.160889-100.693334c17.066667-15.416889 41.016889-22.641778 63.146667-16.042666 31.744 9.443556 50.403556 36.408889 48.071111 68.721777z" fill="#BD10E0" opacity=".7" p-id="2656"></path><path d="M56.888889 512v450.56c0 33.905778 31.459556 61.44 70.257778 61.44H455.111111V512H56.888889zM568.888889 512v512h327.964444c38.798222 0 70.257778-27.534222 70.257778-61.44V512h-398.222222z" fill="#BD10E0" opacity=".7" p-id="2657"></path></svg>