<?xml version="1.0" encoding="UTF-8"?>
<svg width="743px" height="800px" viewBox="0 0 743 800" version="1.1" xmlns="http://www.w3.org/2000/svg" xmlns:xlink="http://www.w3.org/1999/xlink">
    <!-- Generator: Sketch 50.2 (55047) - http://www.bohemiancoding.com/sketch -->
    <title>订单管理@3x</title>
    <desc>Created with Sketch.</desc>
    <defs></defs>
    <g id="Page-1" stroke="none" stroke-width="1"  fill-rule="evenodd">
        <g id="订单管理" fill-rule="nonzero">
            <path d="M480.428571,0 L262.385714,0 C235.657143,0 214.285714,20.5428571 214.285714,45.9428571 C214.285714,71.3857143 235.714286,91.9857143 262.4,91.9857143 L481.771429,91.9857143 C507.142857,92 528.571429,71.3857143 528.571429,45.9428571 C528.571429,20.5428571 507.185714,0 480.428571,0 Z" id="Shape"></path>
            <path d="M186.128571,30.6571429 C185.261479,35.9617771 184.802989,41.3251612 184.757143,46.7 C184.757143,87.3 209.7,127.242857 240.857143,127.242857 L510.785714,127.242857 C540.4,127.242857 565.3,87.3 565.271429,46.7 C565.271429,41.2857143 564.785714,35.9428571 563.942857,30.6571429 L650.457143,30.6571429 C713,30.6571429 742.857143,76.0571429 742.857143,141.528571 L742.857143,690.214286 C742.857143,769.028571 710.957143,799.885714 645.328571,799.885714 L89.4428571,799.885714 C23.8142857,799.885714 0,760.528571 0,690.171429 L0,141.542857 C0,76.0714286 16.6285714,30.6857143 84.3285714,30.6857143 L186.128571,30.6571429 Z M535.714286,587.8 L207.142857,587.8 C187.418402,587.8 171.428571,603.78983 171.428571,623.514286 C171.428571,643.238741 187.418402,659.228571 207.142857,659.228571 L535.714286,659.228571 C555.438741,659.228571 571.428571,643.238741 571.428571,623.514286 C571.428571,603.78983 555.438741,587.8 535.714286,587.8 Z M535.714286,416.371429 L207.142857,416.371429 C187.418402,416.371429 171.428571,432.361259 171.428571,452.085714 C171.428571,471.81017 187.418402,487.8 207.142857,487.8 L535.714286,487.8 C555.438741,487.8 571.428571,471.81017 571.428571,452.085714 C571.428571,432.361259 555.438741,416.371429 535.714286,416.371429 Z M535.714286,244.942857 L207.142857,244.942857 C187.418402,244.942857 171.428571,260.932688 171.428571,280.657143 C171.428571,300.381598 187.418402,316.371429 207.142857,316.371429 L535.714286,316.371429 C555.438741,316.371429 571.428571,300.381598 571.428571,280.657143 C571.428571,260.932688 555.438741,244.942857 535.714286,244.942857 Z" id="Shape"></path>
        </g>
    </g>
</svg>