<?xml version="1.0" encoding="UTF-8"?>
<svg width="48px" height="44px" viewBox="0 0 48 44" version="1.1" xmlns="http://www.w3.org/2000/svg" xmlns:xlink="http://www.w3.org/1999/xlink">
    <title>分销管理@3x</title>
    <desc>Created with Sketch.</desc>
    <defs></defs>
    <g id="Page-1" stroke="none" stroke-width="1" fill="none" fill-rule="evenodd">
        <g id="分销管理" transform="translate(-116.000000, -694.000000)"  fill-rule="nonzero">
            <g id="分销" transform="translate(116.000000, 694.000000)">
                <path d="M38.6946673,0 L38.6946676,2.43005493e-11 C43.8343922,0.000543992841 48.0005281,4.15925142 48,9.28874377 C47.9994549,14.4182142 43.8324339,18.5760382 38.6926873,18.5755112 C35.7940562,18.5752044 33.0611076,17.2269852 31.3005597,14.9288511 L24.0083256,20.544496 L24.008326,20.5444973 C24.5070724,22.2623622 24.6221041,24.0685158 24.3453121,25.8355867 L32.7699524,32.3252916 L32.7699529,32.325291 C35.1726452,29.0619709 39.7711313,28.3604128 43.040997,30.7583115 C46.3108407,33.1562102 47.0138013,37.7455218 44.611109,41.0088639 C42.2084167,44.272184 37.6099307,44.9737421 34.3400649,42.5758434 C31.8844334,40.7750346 30.7975513,37.6483089 31.608133,34.7166371 L31.4063329,34.9786492 L23.4636462,28.8585159 L23.4636466,28.858515 C20.7478604,35.0408804 13.5244517,37.8555102 7.32972731,35.1451422 C2.87706836,33.1969747 0.000660272283,28.8047152 1.8230453e-07,23.9526322 L0,23.9505253 C-1.0211548e-06,17.2012198 5.48235531,11.7298023 12.2451532,11.7298023 C16.5891701,11.7298016 20.6080091,14.0266936 22.8064608,17.7658762 L29.8929668,12.3105327 L29.8929668,12.3105328 C28.2201932,7.4603383 30.8038778,2.17509004 35.6637815,0.505671323 C36.6390248,0.170663713 37.6632864,-0.000218060813 38.6946858,1.03138409e-05 L38.6946673,0 Z" id="Shape"></path>
            </g>
        </g>
    </g>
</svg>
