<?xml version="1.0" encoding="UTF-8"?>
<svg width="800px" height="800px" viewBox="0 0 800 800" version="1.1" xmlns="http://www.w3.org/2000/svg" xmlns:xlink="http://www.w3.org/1999/xlink">
    <!-- Generator: Sketch 50.2 (55047) - http://www.bohemiancoding.com/sketch -->
    <title>官网管理@3x</title>
    <desc>Created with Sketch.</desc>
    <defs></defs>
    <g id="Page-1" stroke="none" stroke-width="1" fill-rule="evenodd">
        <g id="官网管理" fill-rule="nonzero">
            <path d="M400,0 C179.285714,0 0,179.285714 0,400 C0,620.714286 179.285714,800 400,800 C620.714286,800 800,620.714286 800,400 C800,179.285714 620.714286,0 400,0 Z M322.666667,679.920635 C193.203401,664.079138 93.2380952,553.734921 93.2380952,419.901587 C93.2380952,399.690023 95.9693878,380.024717 100.339456,361.451927 L257.115646,518.228118 L257.115646,551.003628 C257.115646,587.056689 286.613605,616.554649 322.666667,616.554649 L322.666667,679.920635 Z M635.343857,583.365601 C626.607393,554.826484 600.398,534.4414 568.946728,534.4414 L534.00087,534.4414 L534.00087,430.186258 C534.00087,410.383605 518.275234,394.657969 498.472581,394.657969 L283.555556,394.657969 L283.555556,324.766254 L358.68915,324.766254 C378.491803,324.766254 394.217439,309.040618 394.217439,289.237965 L394.217439,219.92868 L462.944292,219.92868 C501.967167,219.92868 534.00087,187.894977 534.00087,148.872103 L534.00087,135.47619 C636.508719,176.828789 708.730159,277.006915 708.730159,394.657969 C708.730159,467.46184 681.355903,533.276538 635.343857,583.365601 Z" id="Shape"></path>
        </g>
    </g>
</svg>