<?xml version="1.0" encoding="UTF-8"?>
<svg width="762px" height="820px" viewBox="0 0 762 820" version="1.1" xmlns="http://www.w3.org/2000/svg" xmlns:xlink="http://www.w3.org/1999/xlink">
    <!-- Generator: Sketch 50.2 (55047) - http://www.bohemiancoding.com/sketch -->
    <title>会员管理@3x</title>
    <desc>Created with Sketch.</desc>
    <defs></defs>
    <g id="Page-1" stroke="none" stroke-width="1"  fill-rule="evenodd">
        <g id="会员管理"  fill-rule="nonzero">
            <path d="M502.879643,439.285714 C506.130357,448.2325 507.755714,457.618571 507.711786,467.063214 L507.711786,555.110714 C507.770357,578.51 497.783929,600.972143 479.963571,617.533214 C462.128571,634.094286 437.909286,643.407143 412.650357,643.407143 L347.694643,643.407143 C322.450357,643.407143 298.231071,634.094286 280.396071,617.533214 C262.561071,600.972143 252.574643,578.51 252.6625,555.110714 L252.6625,467.063214 C252.647857,457.647857 254.185357,448.276429 257.201786,439.285714 C115.3125,474.501786 0,563.310714 0,665.488571 L0,731.703571 C0.146428571,780.317857 42.5667857,819.721786 95.0321429,820 L666.396429,820 C718.861786,819.721786 761.282143,780.317857 761.428571,731.703571 L761.428571,665.488571 C761.428571,562.549286 646.116071,474.501786 503.948571,439.285714 L502.879643,439.285714 Z M380.245714,410 C493.727857,410 585.714286,318.145357 585.714286,205.1025 C585.714286,92.0596429 494.650357,0 381.182857,0 C267.700714,0 175.714286,91.8546429 175.714286,205.1025 C175.714286,318.350357 268.154643,410 381.182857,410 L380.245714,410 Z" id="Shape"></path>
            <path d="M380.714286,439.285714 C356.451071,439.285714 336.785714,461.176786 336.785714,488.192857 L336.785714,536.807143 C336.785714,563.823214 356.451071,585.714286 380.714286,585.714286 C404.9775,585.714286 424.642857,563.823214 424.642857,536.807143 L424.642857,488.192857 C424.6575,475.204643 420.045,462.758214 411.815714,453.577143 C403.762143,444.7475 392.999643,439.637143 381.695357,439.285714 L380.714286,439.285714 Z" id="Shape"></path>
        </g>
    </g>
</svg>