<?xml version="1.0" encoding="UTF-8"?>
<svg width="863px" height="780px" viewBox="0 0 863 780" version="1.1" xmlns="http://www.w3.org/2000/svg" xmlns:xlink="http://www.w3.org/1999/xlink">
    <!-- Generator: Sketch 50.2 (55047) - http://www.bohemiancoding.com/sketch -->
    <title>客户公海@3x</title>
    <desc>Created with Sketch.</desc>
    <defs></defs>
    <g id="Page-1" stroke="none" stroke-width="1"  fill-rule="evenodd">
        <g id="客户公海"  fill-rule="nonzero">
            <path d="M780.76752,512.88016 L367.07216,512.88016 C324.064208,512.88016 287.20016,478.064184 287.20016,433.00816 L287.20016,410.47968 C287.20016,387.95172 268.768136,369.519696 246.240176,369.519696 C223.712216,369.519696 205.280192,387.95172 205.280192,410.47968 L205.280192,433.00764 C205.280192,521.071616 276.960216,594.7994 367.071952,594.7994 L614.88024,594.7994 L614.88024,699.24764 C614.88024,742.255592 580.064264,779.11964 535.00824,779.11964 L80.35248,779.11964 C35.29552,779.12016 0.47996,744.30408 0.47996,699.24816 L0.47996,346.99184 C0.47996,301.93592 35.29552,267.11984 80.35248,267.11984 L494.04888,267.11984 C500.192878,267.11984 504.288876,267.11984 510.432832,269.167839 C520.672828,271.215838 530.912824,275.311837 539.1048,281.455855 C559.584792,295.791839 573.920776,320.367871 573.920776,346.991871 L573.920776,369.52032 C573.920776,392.04828 592.3528,410.480304 614.88076,410.480304 C637.40872,410.480304 655.840744,392.04828 655.840744,369.52032 L655.840744,346.99236 C655.840744,258.928384 584.16072,185.2006 494.048984,185.2006 L287.20016,185.2006 L287.20016,80.75236 C287.20016,35.69592 322.01624,0.87984 367.07216,0.87984 L782.81632,0.87984 C825.824272,0.87984 862.68832,35.695816 862.68832,80.75184 L862.68832,435.05592 C860.640321,478.063872 825.824272,512.879952 780.768352,512.879952 L780.76752,512.88016 Z" id="Shape"></path>
        </g>
    </g>
</svg>