<?xml version="1.0" encoding="UTF-8"?>
<svg width="717px" height="840px" viewBox="0 0 717 840" version="1.1" xmlns="http://www.w3.org/2000/svg" xmlns:xlink="http://www.w3.org/1999/xlink">
    <!-- Generator: Sketch 50.2 (55047) - http://www.bohemiancoding.com/sketch -->
    <title>日志管理@3x</title>
    <desc>Created with Sketch.</desc>
    <defs></defs>
    <g id="Page-1" stroke="none" stroke-width="1" fill-rule="evenodd">
        <g id="日志管理">
            <path d="M338.6145,0 C268.569,51.618 223.125,134.694 223.125,228.375 C223.125,384.951 350.049,511.875 506.625,511.875 C550.8405,511.875 592.704,501.753 630,483.693 L630,777 C630,811.793939 601.793939,840 567,840 L63,840 C28.2060608,840 0,811.793939 0,777 L0,63 C0,28.2060608 28.2060608,6.39154295e-15 63,0 L338.6145,0 Z" id="Shape" fill="#3259CE" fill-rule="nonzero"></path>
            <path d="M94.5,598.5 L388.5,598.5 C402.5,598.5 409.5,605.5 409.5,619.5 C409.5,633.5 402.5,640.5 388.5,640.5 L94.5,640.5 C80.5,640.5 73.5,633.5 73.5,619.5 C73.5,605.5 80.5,598.5 94.5,598.5 Z" id="Shape" fill="#FFFFFF" fill-rule="nonzero"></path>
            <path d="M94.5,703.5 L252,703.5 C266,703.5 273,710.5 273,724.5 C273,738.5 266,745.5 252,745.5 L94.5,745.5 C80.5,745.5 73.5,738.5 73.5,724.5 C73.5,710.5 80.5,703.5 94.5,703.5 Z" id="Shape" fill="#FFFFFF" fill-rule="nonzero"></path>
            <path d="M94.5,493.5 L178.5,493.5 C192.5,493.5 199.5,500.5 199.5,514.5 C199.5,528.5 192.5,535.5 178.5,535.5 L94.5,535.5 C80.5,535.5 73.5,528.5 73.5,514.5 C73.5,500.5 80.5,493.5 94.5,493.5 Z" id="Shape" fill="#FFFFFF" fill-rule="nonzero"></path>
            <path d="M716.367455,193.297689 C717.480707,218.87847 717.152204,244.50165 715.383509,270.045482 C714.727544,282.508798 705.216066,291.364313 691.112839,291.364313 C657.002709,294.644134 637.65177,320.554713 649.787105,350.073095 C652.930295,358.693845 651.836969,368.290823 646.835267,375.983674 C625.516436,391.726812 601.90173,404.846092 577.959043,419.933265 C566.658212,414.249285 555.706073,407.897044 545.16084,400.910308 C518.594297,379.591476 511.050711,379.263495 485.796095,400.910308 C472.499162,416.285837 449.786954,419.248299 432.99099,407.79793 C425.775385,404.190129 418.887763,399.926362 412.000141,395.990578 C379.201939,378.279549 379.201939,374.671747 385.761579,340.233634 C387.802125,328.458873 384.517259,316.385384 376.792403,307.267521 C369.067547,298.149658 357.69778,292.925876 345.747772,293.004224 C327.380779,291.364313 316.22939,282.836781 316.22939,266.109697 C314.590203,240.225043 314.590203,214.262613 316.22939,188.377959 C316.885354,175.258678 326.724815,167.38711 341.484006,165.7472 C376.906064,162.139397 391.665256,141.148548 381.497813,108.350346 C375.71326,93.137818 382.749777,76.0491342 397.568931,69.3204857 L430.367133,51.2814742 C448.167354,36.7681924 474.326,39.2525331 489.075916,56.8571686 C510.722729,74.2402156 520.890171,74.5681979 543.520931,56.8571686 C558.461301,39.4559368 584.601638,37.2654055 602.229712,51.9374379 L621.908634,62.7608453 C652.738943,79.81591 654.378853,84.4076584 647.163249,117.20586 C644.44984,128.95401 647.271204,141.297727 654.819011,150.700504 C662.366818,160.103281 673.808185,165.52754 685.865127,165.419217 C704.888084,167.059128 716.367455,175.914642 716.367455,193.297689 Z M515.314477,307.435432 C536.304906,307.523076 556.460935,299.223432 571.30354,284.380828 C586.146144,269.538224 594.445788,249.382195 594.358144,228.391766 C594.358144,196.421587 575.099773,167.599397 545.563179,155.364939 C516.026585,143.130481 482.028495,149.893121 459.422164,172.499452 C436.815834,195.105782 430.053193,229.103872 442.287651,258.640466 C454.522109,288.17706 483.344298,307.435432 515.314477,307.435432 Z" id="Combined-Shape" fill="#3259CE"></path>
        </g>
    </g>
</svg>