<?xml version="1.0" encoding="UTF-8"?>
<svg width="820px" height="742px" viewBox="0 0 820 742" version="1.1" xmlns="http://www.w3.org/2000/svg" xmlns:xlink="http://www.w3.org/1999/xlink">
    <!-- Generator: Sketch 50.2 (55047) - http://www.bohemiancoding.com/sketch -->
    <title>dashboard@3x</title>
    <desc>Created with Sketch.</desc>
    <defs></defs>
    <g id="Page-1" stroke="none" stroke-width="1" fill-rule="evenodd">
        <g id="dashboard" fill-rule="nonzero">
            <path d="M138.921667,176.356449 L78.4654831,176.356449 C35.5609638,176.356449 0.457338164,211.460174 0.457338164,254.364594 L0.457338164,663.907058 C0.457338164,706.811577 35.5610628,741.915203 78.4654831,741.915203 L138.921865,741.915203 C181.826384,741.915203 216.93001,706.811478 216.93001,663.907058 L216.93001,254.364396 C216.93001,211.459877 181.826285,176.356251 138.921865,176.356251 L138.921667,176.356449 Z M449.004469,0.837826087 L370.996324,0.837826087 C328.091804,0.837826087 292.988179,35.9415507 292.988179,78.845971 L292.988179,663.907058 C292.988179,706.811577 328.091903,741.915203 370.996324,741.915203 L449.004469,741.915203 C491.908988,741.915203 527.012614,706.811478 527.012614,663.907058 L527.012614,78.8457729 C527.012614,35.9412536 491.908889,0.837628019 449.004469,0.837628019 L449.004469,0.837826087 Z M741.534517,351.875072 L681.078135,351.875072 C638.173616,351.875072 603.06999,386.978797 603.06999,429.883217 L603.06999,663.908048 C603.06999,706.812568 638.173715,741.916193 681.078135,741.916193 L741.534517,741.916193 C784.439036,741.916193 819.542662,706.812469 819.542662,663.908048 L819.542662,429.883019 C819.542662,386.9785 784.438937,351.874874 741.534517,351.874874 L741.534517,351.875072 Z" id="Shape"></path>
        </g>
    </g>
</svg>