<?xml version="1.0" encoding="UTF-8"?>
<svg width="761px" height="799px" viewBox="0 0 761 799" version="1.1" xmlns="http://www.w3.org/2000/svg" xmlns:xlink="http://www.w3.org/1999/xlink">
    <!-- Generator: Sketch 50.2 (55047) - http://www.bohemiancoding.com/sketch -->
    <title>analysis@3x</title>
    <desc>Created with Sketch.</desc>
    <defs></defs>
    <g id="Page-1" stroke="none" stroke-width="1" fill-rule="evenodd">
        <g id="analysis" fill-rule="nonzero">
            <path d="M638.939417,798.673764 L119.801267,798.673764 C97.8377693,798.673764 79.8675792,780.703574 79.8675792,758.740076 C79.8675792,736.776578 97.8377693,718.806388 119.801267,718.806388 L638.939417,718.806388 C660.902915,718.806388 678.873105,736.776578 678.873105,758.740076 C678.873105,780.703574 660.902915,798.673764 638.939417,798.673764 Z M674.879594,0 L83.86109,0 C37.9376426,0 0,37.9376426 0,83.86109 L0,577.042332 C0,622.966084 37.9370342,660.903118 83.8607858,660.903118 L676.876755,660.903118 C722.800507,660.903118 760.737541,622.966084 760.737541,577.042332 L760.737541,83.86109 C758.740684,37.9376426 720.803042,0 674.879594,0 Z M612.982307,223.628897 L443.263676,393.347529 C427.290241,407.324309 401.333333,409.320963 387.356451,393.347529 L295.509252,299.503169 L181.698352,413.314068 C173.711615,421.300806 163.728162,425.294195 153.744791,425.294195 C143.76142,425.294195 133.777947,421.300826 125.791229,413.314068 C109.817795,397.340634 109.817795,373.38038 125.791229,357.406844 L267.555488,215.642586 C283.528923,199.669151 307.489176,199.669151 323.462712,215.642586 L415.310215,307.490089 L557.074474,165.72583 C573.047909,149.752395 597.008162,149.752395 612.981698,165.72583 C628.955133,181.699265 628.955133,207.656172 612.981698,223.629708 L612.982307,223.628897 Z" id="Shape"></path>
        </g>
    </g>
</svg>