<?xml version="1.0" encoding="UTF-8"?>
<svg width="845px" height="760px" viewBox="0 0 845 760" version="1.1" xmlns="http://www.w3.org/2000/svg" xmlns:xlink="http://www.w3.org/1999/xlink">
    <!-- Generator: Sketch 50.2 (55047) - http://www.bohemiancoding.com/sketch -->
    <title>商品管理@3x</title>
    <desc>Created with Sketch.</desc>
    <defs></defs>
    <g id="Page-1" stroke="none" stroke-width="1"  fill-rule="evenodd">
        <g id="商品管理"  fill-rule="nonzero">
            <path d="M804.951046,107.127399 L740.753051,26.8799571 C728.715914,10.8305094 708.654054,0.79952815 688.592193,0.79952815 L152.940322,0.79952815 C132.878461,0.79952815 112.816601,10.8304584 98.7733083,26.8799571 L38.5877265,107.127399 C8.49488472,145.244965 -5.54840751,193.39341 2.47631635,247.560322 C10.5010606,297.715024 40.593882,339.844901 80.7176032,367.931689 C88.7423475,373.950247 96.7670509,377.962619 106.798032,381.974981 C110.810404,383.981167 112.81659,383.981167 116.828962,385.987353 C120.841335,387.993539 122.847521,387.993539 126.859893,389.999725 C134.884637,392.005912 140.903185,394.012098 148.927909,396.018284 C154.946467,398.02447 162.971201,398.02447 168.989769,398.02447 L195.070198,398.02447 C199.082571,398.02447 205.101129,398.02447 209.113491,396.018284 L215.132049,396.018284 C221.150607,394.012098 227.169186,394.012098 233.187754,392.005912 L235.19394,392.005912 C241.212498,389.999725 245.22487,387.993539 251.243388,385.987353 C253.249574,385.987353 255.25576,383.981167 257.261946,383.981167 L269.299083,377.962609 C271.305269,375.956423 273.311455,375.956423 275.317641,373.950237 C279.330013,371.944051 283.342385,369.937865 285.348571,367.931679 C287.354757,365.925493 289.360943,365.925493 289.360943,363.919307 C293.373315,359.906935 299.391873,355.894562 303.404235,351.88217 C335.503233,379.968754 377.633109,398.02446 423.775603,398.02446 C469.918096,398.02446 512.047871,379.968754 544.14697,351.88217 C548.159342,355.894542 554.1779,359.906914 558.190262,363.919307 C560.196448,365.925493 562.202634,365.925493 562.202634,367.931679 C566.215006,369.937865 570.227379,371.944051 572.233565,373.950237 C574.239751,375.956423 576.245937,375.956423 578.252123,377.962609 L590.28926,383.981167 C592.295446,383.981167 594.301632,385.987353 596.307818,385.987353 C600.32019,387.993539 606.338748,389.999725 612.357265,392.005912 L614.363451,392.005912 C620.38201,394.012098 626.400588,396.018284 632.419157,396.018284 L638.437715,396.018284 C642.450087,396.018284 648.468645,398.02447 652.481007,398.02447 L678.561436,398.02447 C684.579994,398.02447 692.604728,396.018284 698.623297,396.018284 C706.648041,394.012098 714.672744,392.005912 720.691313,389.999725 C724.703685,387.993539 726.709871,387.993539 730.722243,385.987353 C734.734615,383.981167 736.740801,383.981167 740.753173,381.974981 C794.920187,357.900708 835.043908,307.746107 843.068937,247.560933 C849.087495,193.39392 835.044193,143.239217 804.951372,107.128011 L804.951046,107.127399 Z M662.512172,458.209705 C620.382295,458.209705 578.252316,446.172568 542.140804,422.098295 C506.029394,446.172568 463.899517,458.209705 421.769437,458.209705 C379.639357,458.209705 337.509582,446.172568 301.39807,422.098295 C265.28666,446.172568 223.156783,458.209705 181.026702,458.209705 C166.98341,458.209705 152.940118,456.203519 140.902981,454.197333 C120.841121,450.184961 100.77926,444.166403 80.7173995,434.135472 L80.7173995,678.890885 C80.7173995,723.027019 116.82881,759.138327 160.964842,759.138327 L682.573421,759.138327 C726.709555,759.138327 762.820863,723.026917 762.820863,678.890885 L762.820863,434.135228 C744.765158,444.166158 724.703298,450.184676 704.641437,454.197088 C690.598145,456.203275 676.554853,458.209461 662.51156,458.209461 L662.512172,458.209705 Z" id="Shape"></path>
        </g>
    </g>
</svg>