<?xml version="1.0" standalone="no"?><!DOCTYPE svg PUBLIC "-//W3C//DTD SVG 1.1//EN" "http://www.w3.org/Graphics/SVG/1.1/DTD/svg11.dtd"><svg t="1563505472116" class="icon" viewBox="0 0 1024 1024" version="1.1" xmlns="http://www.w3.org/2000/svg" p-id="3241" width="48" height="48" xmlns:xlink="http://www.w3.org/1999/xlink"><defs><style type="text/css"></style></defs><path d="M374.9 314.1c0 27.6-22.4 50-50 50s-50-22.4-50-50 22.4-50 50-50 50 22.4 50 50z m202 50c27.6 0 50-22.4 50-50s-22.4-50-50-50-50 22.4-50 50 22.4 50 50 50z m301.9 485.2l11.3 109.5-100-53.5c-38.6 16-81.6 24.9-127.1 24.9-141.1 0-259.4-86-291.4-201.9-27.2-4.8-53.4-12.1-78.2-21.5L180 767.5l12.1-116.6c-80.4-61.4-131.2-151-131.2-250.7 0-185 174.6-335 390-335s390 150 390 335c0 16.6-1.4 32.9-4.1 48.9 76.5 48 126.3 126.9 126.3 216.1 0 71.5-32.1 136.5-84.3 184.1zM311.2 660c17 6.4 34.4 11.6 52.1 15.6-0.2-3.5-0.3-6.9-0.3-10.4 0-146.4 134.3-265 300-265 45.2 0 88.1 8.8 126.5 24.7 0.8-8.1 1.3-16.4 1.3-24.7 0-157.1-152.5-285-340-285s-340 127.9-340 285c0 40.4 9.9 79.5 29.5 116.2 19.3 36.1 46.9 68 82.1 94.8l22.3 17-2.9 27.9-2.4 22.9 30.3-16.2 20.1-10.7 21.4 7.9zM831 445.6c1.9 1.1 3.8 2.3 5.7 3.5-1.9-1.2-3.8-2.4-5.7-3.5z m-5.7-3.4c0.9 0.5 1.9 1.1 2.8 1.6-1-0.5-1.9-1.1-2.8-1.6z m-5.8-3.2c0.6 0.3 1.2 0.7 1.8 1-0.6-0.3-1.2-0.7-1.8-1z m-5.8-3.1c0.4 0.2 0.7 0.4 1.1 0.6-0.4-0.2-0.8-0.4-1.1-0.6z m-5.9-2.9l0.6 0.3-0.6-0.3z m-6-2.8c0.1 0 0.1 0.1 0.2 0.1 0-0.1-0.1-0.1-0.2-0.1z m-6-2.7zM370 721.9z m-3.9-19.6z m1.1 6.6z m1.3 6.5z m544.6-50.2c0-118.6-112.1-215-250-215s-250 96.4-250 215 112.1 215 250 215c37.8 0 74.1-7.1 107.9-21.1l21.9-9 20.9 11.2 16.9 9.1-1.6-15.8-2.6-25.1 18.6-17c43.8-40.2 68-92.5 68-147.3z m-346-93.6c-22.1 0-40 17.9-40 40s17.9 40 40 40 40-17.9 40-40-17.9-40-40-40z m192 0c-22.1 0-40 17.9-40 40s17.9 40 40 40 40-17.9 40-40-17.9-40-40-40z" p-id="3242"></path></svg>