<?xml version="1.0" encoding="UTF-8"?>
<svg width="860px" height="707px" viewBox="0 0 860 707" version="1.1" xmlns="http://www.w3.org/2000/svg" xmlns:xlink="http://www.w3.org/1999/xlink">
    <!-- Generator: Sketch 50.2 (55047) - http://www.bohemiancoding.com/sketch -->
    <title>微信管理@3x</title>
    <desc>Created with Sketch.</desc>
    <defs></defs>
    <g id="Page-1" stroke="none" stroke-width="1" fill-rule="evenodd">
        <g id="微信管理" fill-rule="nonzero">
            <path d="M597.94725,218.026125 C602.3096,218.026125 606.589175,218.107825 610.8709,218.31315 C588.232475,95.046125 460.903025,0.671875 307.21995,0.671875 C137.52905,0.671875 0,115.707625 0,257.61945 C0,340.818 47.2699,414.800575 120.590275,461.739375 C121.538425,462.336 123.41,463.5099 123.41,463.5099 L93.71635,556.506 L204.779975,499.934125 C204.779975,499.934125 208.256525,500.9414 210.00555,501.436975 C240.54415,509.935925 273.244575,514.5466 307.21995,514.5466 C314.154775,514.5466 321.028325,514.278925 327.861025,513.90805 C321.56475,494.37745 318.106475,473.81915 318.106475,452.60295 C318.106475,323.057925 443.432125,218.026125 597.94725,218.026125 Z M414.12655,127.354175 C437.95715,127.354175 457.239425,146.039825 457.239425,169.130825 C457.239425,192.17775 437.958225,210.905325 414.12655,210.905325 C390.2766,210.905325 370.9954,192.17775 370.9954,169.130825 C370.994325,146.039825 390.2766,127.354175 414.12655,127.354175 Z M200.312275,210.905325 C176.483825,210.905325 157.181125,192.17775 157.181125,169.130825 C157.181125,146.039825 176.483825,127.354175 200.312275,127.354175 C224.164375,127.354175 243.488575,146.039825 243.488575,169.130825 C243.488575,192.17775 224.164375,210.905325 200.312275,210.905325 Z" id="Shape"></path>
            <path d="M340.702975,454.126225 C340.702975,574.016675 456.9309,671.21065 600.2929,671.21065 C628.979275,671.21065 656.5971,667.30195 682.402475,660.09945 C683.883825,659.707075 686.80675,658.82235 686.80675,658.82235 L780.603725,706.6491 L755.5401,628.07735 C755.5401,628.07735 757.14615,627.070075 757.927675,626.57665 C819.828325,586.9199 859.792525,524.444125 859.792525,454.126225 C859.792525,334.25405 743.604375,237.081575 600.2929,237.081575 C456.9309,237.081575 340.702975,334.25405 340.702975,454.126225 Z M654.12675,379.362125 C654.12675,359.89495 670.424825,344.1118 690.550975,344.1118 C710.717975,344.1118 727.017125,359.89495 727.017125,379.362125 C727.017125,398.871225 710.7169,414.675875 690.550975,414.675875 C670.424825,414.675875 654.12675,398.871225 654.12675,379.362125 Z M473.49665,379.362125 C473.49665,359.89495 489.81515,344.1118 509.9413,344.1118 C530.08895,344.1118 546.40745,359.89495 546.40745,379.362125 C546.40745,398.871225 530.08895,414.675875 509.9413,414.675875 C489.81515,414.675875 473.49665,398.871225 473.49665,379.362125 Z" id="Shape"></path>
        </g>
    </g>
</svg>