<?xml version="1.0" encoding="UTF-8"?>
<svg width="869px" height="800px" viewBox="0 0 869 800" version="1.1" xmlns="http://www.w3.org/2000/svg" xmlns:xlink="http://www.w3.org/1999/xlink">
    <!-- Generator: Sketch 50.2 (55047) - http://www.bohemiancoding.com/sketch -->
    <title>物流管理@3x</title>
    <desc>Created with Sketch.</desc>
    <defs></defs>
    <g id="Page-1" stroke="none" stroke-width="1"  fill-rule="evenodd">
        <g id="物流管理"  fill-rule="nonzero">
            <path d="M464.945278,0.968523002 C482.719613,0.891041162 496.371913,6.28377724 506.429056,19.2542373 C512.248852,26.7049583 515.606586,35.7816709 516.036804,45.2261501 C516.098789,46.4658596 516.145278,47.535109 516.160775,48.9142857 L516.39322,132.858111 C516.641162,185.545763 517.090557,248.987893 517.772397,323.169007 L521.646489,698.258596 L317.094431,697.840194 L315.792736,690.556901 C306.804843,640.379661 263.446005,603.389831 212.184019,603.157385 C160.736077,603.033414 117.237772,639.945763 108.20339,690.494915 L106.886199,697.778208 L60.1491525,698.088136 L51.3937046,698.305085 C21.3307506,698.305085 0.813559322,676.796126 0.968523002,644.842615 L1.04600484,610.471671 L1.23196126,53.8731235 C1.23196126,50.4639225 1.38692494,47.1476998 1.6503632,43.831477 C3.35496368,21.1757869 21.4857143,2.95205811 43.8469734,1.38692494 C47.0237288,1.15447942 49.8440678,1.03050847 52.633414,1.03050847 L464.945278,0.968523002 Z" id="Shape"></path>
            <path d="M682.560775,202.421308 C704.674092,202.343826 722.556901,210.014528 735.511864,226.223729 L744.887167,238.000969 C752.759322,247.949637 760.848426,258.301211 769.696852,269.799516 L805.524455,316.645036 C814.233414,328.112349 821.811138,338.246973 829.001453,348.040678 L835.308475,356.687651 C853.098305,381.31138 864.178208,406.152058 868.160775,432.883293 C868.579177,435.672639 868.78063,438.57046 868.765133,441.189346 L868.672155,443.668765 L868.672155,648.840678 C868.672155,673.231961 854.322518,692.106538 831.511864,697.018886 C826.70799,698.072639 822.276029,698.336077 815.054722,698.305085 L744.050363,698.227603 L742.779661,690.77385 C734.148184,639.899274 690.324455,602.336077 637.807264,601.824697 C585.584504,601.328814 540.645036,639.077966 531.378208,690.277966 L530.030024,697.654237 L512.720581,697.623245 L466.184988,697.127361 L465.999031,670.690557 L465.859564,253.295884 C465.859564,228.610169 478.706053,210.448426 500.943341,204.482324 C504.786441,203.428571 508.846489,202.886199 513.572881,202.669249 L517.276513,202.560775 L682.560775,202.421308 Z M660.741889,315.079903 L642.301211,315.296852 L581.477966,315.234867 L581.477966,451.649395 L765.388862,451.649395 L763.684262,447.496368 C762.584113,444.719235 761.186458,442.069405 759.515738,439.59322 L740.920097,413.31138 C734.597579,404.416465 728.1046,395.335593 721.379177,385.944794 L700.350605,356.78063 L675.169007,322.053269 C672.421667,317.88299 667.824732,315.301546 662.833898,315.126392 L660.741889,315.0954 L660.741889,315.079903 Z" id="Shape"></path>
            <path d="M640.829056,636.319613 C595.951574,635.901211 559.085714,672.286683 558.837772,717.272639 C558.589831,762.212107 594.913317,798.72155 640.038741,799.031477 C684.730266,799.279419 721.115738,763.312349 721.549637,718.326392 C722.09201,673.27845 686.140436,636.753511 640.829056,636.319613 Z M214.198547,636.319613 C192.589504,636.20807 171.829683,644.725885 156.526321,659.982697 C141.22296,675.239509 132.64194,695.973284 132.687651,717.582567 C132.621671,739.182829 141.164646,759.919221 156.426772,775.204612 C171.688898,790.490004 192.412253,799.064555 214.012591,799.031477 C259.014044,799.031477 295.523487,762.460048 295.399516,717.458596 C295.305641,672.661523 258.995679,636.379278 214.198547,636.319613 Z" id="Shape"></path>
        </g>
    </g>
</svg>