<?xml version="1.0" encoding="UTF-8"?>
<svg width="751px" height="822px" viewBox="0 0 751 822" version="1.1" xmlns="http://www.w3.org/2000/svg" xmlns:xlink="http://www.w3.org/1999/xlink">
    <!-- Generator: Sketch 50.2 (55047) - http://www.bohemiancoding.com/sketch -->
    <title>项目管理@3x</title>
    <desc>Created with Sketch.</desc>
    <defs></defs>
    <g id="Page-1" stroke="none" stroke-width="1" fill-rule="evenodd">
        <g id="项目管理" fill-rule="nonzero">
            <path d="M36.292,262.369 L231.246,360.8305 C321.8306,406.1228 428.169,406.1228 516.784,358.86127 L713.707,256.46127 C760.9685,230.86127 760.9685,161.93817 713.707,136.33827 L520.722,35.90727 C430.1374,-11.35423 319.86,-11.35423 229.276,37.8765 L36.291,142.2455 C-12.9398,167.8455 -10.9705,236.7686 36.291,262.3685 L36.292,262.369 Z" id="Shape"></path>
            <path d="M676.292,380.523 L499.061,478.9845 C426.1995,518.3691 325.769,518.3691 250.938,478.9845 L73.707,380.523 C50.0762,366.7384 20.5378,376.58454 6.7532,400.2153 C-7.0314,423.8461 2.81474,453.3845 26.4455,467.1691 L205.6455,565.6306 C258.8147,593.1998 317.8915,605.0152 376.9685,605.0152 C436.0454,605.0152 497.0915,591.2306 548.2915,563.6614 L725.5225,465.1999 C749.1533,451.4153 757.0302,421.8768 745.2148,398.2461 C729.461,376.5846 699.9225,366.7384 676.2917,380.523 L676.292,380.523 Z" id="Shape"></path>
            <path d="M676.292,597.138 L499.061,695.5995 C426.1995,734.9841 325.769,734.9841 250.938,695.5995 L73.707,597.138 C50.0762,583.3534 20.5378,593.19954 6.7532,616.8303 C-7.0314,640.4611 2.81474,669.9995 26.4455,683.7841 L205.6455,782.2456 C258.8147,809.8148 317.8915,821.6302 376.9685,821.6302 C436.0454,821.6302 497.0915,807.8456 548.2915,780.2764 L725.5225,681.8149 C749.1533,668.0303 757.0302,638.4918 745.2148,614.8611 C729.461,593.1996 699.9225,583.3534 676.2917,597.138 L676.292,597.138 Z" id="Shape"></path>
        </g>
    </g>
</svg>