<?xml version="1.0" encoding="UTF-8"?>
<svg width="700px" height="871px" viewBox="0 0 700 871" version="1.1" xmlns="http://www.w3.org/2000/svg" xmlns:xlink="http://www.w3.org/1999/xlink">
    <!-- Generator: Sketch 50.2 (55047) - http://www.bohemiancoding.com/sketch -->
    <title>权限管理@3x</title>
    <desc>Created with Sketch.</desc>
    <defs></defs>
    <g id="Page-1" stroke="none" stroke-width="1"  fill-rule="evenodd">
        <g id="权限管理" fill-rule="nonzero">
            <path d="M642.378049,116.844512 C524.146341,106.17378 434.72561,43.0030488 391.829268,12.1646341 C381.585366,4.80182927 369.634146,0.853658537 357.256098,0.853658537 C342.317073,0.853658537 327.698171,6.61585366 316.067073,17.179878 C244.039634,82.2713415 123.460366,110.228659 57.9420732,115.243902 C25.6097561,117.698171 0.320121951,146.935976 0.320121951,181.829268 L0.320121951,458.841463 C0.320121951,591.371951 197.408537,870.411585 352.134146,870.411585 C514.009146,870.411585 699.573171,585.609756 699.573171,469.085366 L699.573171,183.216463 C699.679878,148.216463 675.030488,119.72561 642.378049,116.844512 Z M379.771341,435.792683 L379.771341,606.95122 C379.771341,623.704268 366.219512,637.362805 349.359756,637.362805 C332.606707,637.362805 318.948171,623.810976 318.948171,606.95122 L318.948171,435.365854 C277.118902,422.134146 246.60061,383.292683 246.60061,337.195122 C246.60061,280.213415 292.911585,233.902439 349.893293,233.902439 C406.875,233.902439 453.292683,280.213415 453.292683,337.195122 C453.39939,383.719512 422.240854,422.987805 379.771341,435.792683 Z" id="Shape"></path>
        </g>
    </g>
</svg>