<?xml version="1.0" encoding="UTF-8"?>
<svg width="760px" height="760px" viewBox="0 0 760 760" version="1.1" xmlns="http://www.w3.org/2000/svg" xmlns:xlink="http://www.w3.org/1999/xlink">
    <!-- Generator: Sketch 50.2 (55047) - http://www.bohemiancoding.com/sketch -->
    <title>营销中心@3x</title>
    <desc>Created with Sketch.</desc>
    <defs></defs>
    <g id="Page-1" stroke="none" stroke-width="1"  fill-rule="evenodd">
        <g id="营销中心"  fill-rule="nonzero">
            <path d="M266.044365,0.148527919 L76.1186294,0.148527919 C34.3349289,0.148527919 0.148335025,34.3352183 0.148335025,76.1188223 L0.148335025,266.044558 C0.148335025,307.828259 34.3350254,342.014853 76.1186294,342.014853 L266.044365,342.014853 C307.828066,342.014853 342.01466,307.828162 342.01466,266.044558 L342.01466,76.1186294 C342.01466,34.3349289 307.82797,0.148335025 266.044365,0.148335025 L266.044365,0.148527919 Z M683.881371,417.985533 L493.955635,417.985533 C452.171934,417.985533 417.98534,452.172223 417.98534,493.955827 L417.98534,683.881563 C417.98534,725.665264 452.17203,759.851858 493.955635,759.851858 L683.881371,759.851858 C725.665071,759.851858 759.851665,725.665168 759.851665,683.881563 L759.851665,493.955635 C759.851665,452.171934 725.664975,417.98534 683.881371,417.98534 L683.881371,417.985533 Z M266.044365,417.985533 L76.1186294,417.985533 C34.3349289,417.985533 0.148335025,452.172223 0.148335025,493.955827 L0.148335025,683.881563 C0.148335025,725.665264 34.3350254,759.851858 76.1186294,759.851858 L266.044365,759.851858 C307.828066,759.851858 342.01466,725.665168 342.01466,683.881563 L342.01466,493.955635 C342.01466,452.171934 307.82797,417.98534 266.044365,417.98534 L266.044365,417.985533 Z M683.881371,0.148527919 L493.955635,0.148527919 C452.171934,0.148527919 417.98534,34.3352183 417.98534,76.1188223 L417.98534,266.044558 C417.98534,307.828259 452.17203,342.014853 493.955635,342.014853 L683.881371,342.014853 C725.665071,342.014853 759.851665,307.828162 759.851665,266.044558 L759.851665,76.1186294 C759.851665,34.3349289 725.664975,0.148335025 683.881371,0.148335025 L683.881371,0.148527919 Z M683.881371,266.044365 L493.955635,266.044365 L493.955635,76.1186294 L683.881371,76.1186294 L683.881371,266.044365 Z" id="Shape"></path>
        </g>
    </g>
</svg>